<?xml version="1.0" standalone="no"?>
<!DOCTYPE svg PUBLIC "-//W3C//DTD SVG 20010904//EN"
 "http://www.w3.org/TR/2001/REC-SVG-20010904/DTD/svg10.dtd">
<svg version="1.0" xmlns="http://www.w3.org/2000/svg"
 width="1024.000000pt" height="1024.000000pt" viewBox="0 0 1024.000000 1024.000000"
 preserveAspectRatio="xMidYMid meet">

<g transform="translate(0.000000,1024.000000) scale(0.100000,-0.100000)"
fill="#000000" stroke="none">
<path d="M570 8395 l0 -1275 1275 0 1275 0 0 1275 0 1275 -1275 0 -1275 0 0
-1275z m2180 5 l0 -910 -910 0 -910 0 0 910 0 910 910 0 910 0 0 -910z"/>
<path d="M1300 8395 l0 -545 545 0 545 0 0 545 0 545 -545 0 -545 0 0 -545z"/>
<path d="M3850 9490 l0 -180 -185 0 -185 0 0 -185 0 -185 185 0 185 0 0 -180
0 -180 -185 0 -185 0 0 -185 0 -185 185 0 185 0 0 -180 0 -180 -185 0 -185 0
0 -365 0 -365 185 0 185 0 0 -180 0 -180 -550 0 -550 0 0 -185 0 -185 -180 0
-180 0 0 185 0 185 -910 0 -910 0 0 -185 0 -185 180 0 180 0 0 -180 0 -180
-180 0 -180 0 0 -180 0 -180 180 0 180 0 0 -185 0 -185 -180 0 -180 0 0 -910
0 -910 180 0 180 0 0 910 0 910 185 0 185 0 0 185 0 185 -185 0 -185 0 0 180
0 180 185 0 185 0 0 180 0 180 365 0 365 0 0 -180 0 -180 -185 0 -185 0 0
-365 0 -365 185 0 185 0 0 -180 0 -180 -185 0 -185 0 0 -185 0 -185 -180 0
-180 0 0 -545 0 -545 365 0 365 0 0 185 0 185 180 0 180 0 0 180 0 180 365 0
365 0 0 180 0 180 -185 0 -185 0 0 185 0 185 730 0 730 0 0 180 0 180 180 0
180 0 0 365 0 365 185 0 185 0 0 -180 0 -180 545 0 545 0 0 -185 0 -185 -365
0 -365 0 0 -180 0 -180 -365 0 -365 0 0 -185 0 -185 -545 0 -545 0 0 -180 0
-180 365 0 365 0 0 -180 0 -180 180 0 180 0 0 360 0 360 365 0 365 0 0 185 0
185 545 0 545 0 0 -185 0 -185 -180 0 -180 0 0 -180 0 -180 -180 0 -180 0 0
-180 0 -180 -185 0 -185 0 0 -185 0 -185 -725 0 -725 0 0 185 0 185 -550 0
-550 0 0 -185 0 -185 365 0 365 0 0 -365 0 -365 185 0 185 0 0 -180 0 -180
-185 0 -185 0 0 -910 0 -910 730 0 730 0 0 180 0 180 180 0 180 0 0 -180 0
-180 185 0 185 0 0 180 0 180 180 0 180 0 0 -180 0 -180 180 0 180 0 0 180 0
180 365 0 365 0 0 -180 0 -180 365 0 365 0 0 180 0 180 365 0 365 0 0 -180 0
-180 545 0 545 0 0 545 0 545 -180 0 -180 0 0 -365 0 -365 -365 0 -365 0 0
365 0 365 -185 0 -185 0 0 365 0 365 185 0 185 0 0 -180 0 -180 180 0 180 0 0
180 0 180 -180 0 -180 0 0 180 0 180 -185 0 -185 0 0 185 0 185 365 0 365 0 0
-185 0 -185 185 0 185 0 0 -360 0 -360 180 0 180 0 0 545 0 545 -365 0 -365 0
0 365 0 365 185 0 185 0 0 -185 0 -185 180 0 180 0 0 185 0 185 -180 0 -180 0
0 180 0 180 180 0 180 0 0 180 0 180 -545 0 -545 0 0 185 0 185 180 0 180 0 0
180 0 180 185 0 185 0 0 -180 0 -180 180 0 180 0 0 545 0 545 -365 0 -365 0 0
-365 0 -365 -180 0 -180 0 0 185 0 185 -185 0 -185 0 0 -185 0 -185 -180 0
-180 0 0 730 0 730 -180 0 -180 0 0 -365 0 -365 -185 0 -185 0 0 -180 0 -180
-180 0 -180 0 0 360 0 360 180 0 180 0 0 185 0 185 -180 0 -180 0 0 -185 0
-185 -185 0 -185 0 0 185 0 185 -180 0 -180 0 0 365 0 365 180 0 180 0 0 -185
0 -185 185 0 185 0 0 185 0 185 -185 0 -185 0 0 180 0 180 -180 0 -180 0 0
180 0 180 365 0 365 0 0 185 0 185 -185 0 -185 0 0 180 0 180 185 0 185 0 0
185 0 185 -365 0 -365 0 0 180 0 180 -180 0 -180 0 0 -180 0 -180 180 0 180 0
0 -550 0 -550 -180 0 -180 0 0 185 0 185 -185 0 -185 0 0 180 0 180 -545 0
-545 0 0 185 0 185 545 0 545 0 0 180 0 180 -725 0 -725 0 0 -180z m1090
-1095 l0 -185 365 0 365 0 0 -180 0 -180 180 0 180 0 0 -180 0 -180 -180 0
-180 0 0 -365 0 -365 180 0 180 0 0 -185 0 -185 180 0 180 0 0 -180 0 -180
-180 0 -180 0 0 180 0 180 -180 0 -180 0 0 -180 0 -180 -365 0 -365 0 0 180 0
180 -545 0 -545 0 0 -180 0 -180 -185 0 -185 0 0 -180 0 -180 185 0 185 0 0
-185 0 -185 -550 0 -550 0 0 185 0 185 -180 0 -180 0 0 -185 0 -185 -180 0
-180 0 0 185 0 185 180 0 180 0 0 180 0 180 180 0 180 0 0 180 0 180 185 0
185 0 0 -180 0 -180 180 0 180 0 0 180 0 180 185 0 185 0 0 185 0 185 180 0
180 0 0 180 0 180 -180 0 -180 0 0 365 0 365 180 0 180 0 0 -365 0 -365 180 0
180 0 0 365 0 365 185 0 185 0 0 180 0 180 -545 0 -545 0 0 185 0 185 545 0
545 0 0 -185z m2550 -2910 l0 -185 180 0 180 0 0 -180 0 -180 180 0 180 0 0
180 0 180 185 0 185 0 0 -180 0 -180 -185 0 -185 0 0 -185 0 -185 185 0 185 0
0 -180 0 -180 180 0 180 0 0 -180 0 -180 -180 0 -180 0 0 -185 0 -185 -185 0
-185 0 0 185 0 185 -360 0 -360 0 0 180 0 180 360 0 360 0 0 180 0 180 -180 0
-180 0 0 185 0 185 -180 0 -180 0 0 -185 0 -185 -185 0 -185 0 0 -180 0 -180
-180 0 -180 0 0 -180 0 -180 -185 0 -185 0 0 -550 0 -550 -180 0 -180 0 0
-180 0 -180 -365 0 -365 0 0 365 0 365 365 0 365 0 0 180 0 180 -180 0 -180 0
0 185 0 185 360 0 360 0 0 360 0 360 365 0 365 0 0 185 0 185 -365 0 -365 0 0
180 0 180 365 0 365 0 0 185 0 185 185 0 185 0 0 -185z m-5100 -910 l0 -365
-180 0 -180 0 0 365 0 365 180 0 180 0 0 -365z m5460 -1640 l0 -545 -545 0
-545 0 0 545 0 545 545 0 545 0 0 -545z m-2910 0 l0 -185 -185 0 -185 0 0 185
0 185 185 0 185 0 0 -185z m0 -725 l0 -180 545 0 545 0 0 -365 0 -365 180 0
180 0 0 180 0 180 185 0 185 0 0 185 0 185 180 0 180 0 0 -185 0 -185 545 0
545 0 0 -180 0 -180 -545 0 -545 0 0 180 0 180 -180 0 -180 0 0 -180 0 -180
-185 0 -185 0 0 -185 0 -185 -180 0 -180 0 0 185 0 185 -180 0 -180 0 0 -185
0 -185 -185 0 -185 0 0 365 0 365 -180 0 -180 0 0 -365 0 -365 -185 0 -185 0
0 365 0 365 185 0 185 0 0 185 0 185 -185 0 -185 0 0 180 0 180 185 0 185 0 0
-180z m-730 -730 l0 -180 -180 0 -180 0 0 180 0 180 180 0 180 0 0 -180z"/>
<path d="M4940 7485 l0 -365 -185 0 -185 0 0 -180 0 -180 185 0 185 0 0 -185
0 -185 365 0 365 0 0 185 0 185 -185 0 -185 0 0 365 0 365 185 0 185 0 0 180
0 180 -365 0 -365 0 0 -365z"/>
<path d="M2750 5850 l0 -180 185 0 185 0 0 180 0 180 -185 0 -185 0 0 -180z"/>
<path d="M7120 5120 l0 -180 185 0 185 0 0 180 0 180 -185 0 -185 0 0 -180z"/>
<path d="M8210 4030 l0 -180 185 0 185 0 0 180 0 180 -185 0 -185 0 0 -180z"/>
<path d="M7120 2935 l0 -185 185 0 185 0 0 185 0 185 -185 0 -185 0 0 -185z"/>
<path d="M7120 8395 l0 -1275 1275 0 1275 0 0 1275 0 1275 -1275 0 -1275 0 0
-1275z m2190 5 l0 -910 -910 0 -910 0 0 910 0 910 910 0 910 0 0 -910z"/>
<path d="M7850 8395 l0 -545 545 0 545 0 0 545 0 545 -545 0 -545 0 0 -545z"/>
<path d="M8210 6575 l0 -185 185 0 185 0 0 185 0 185 -185 0 -185 0 0 -185z"/>
<path d="M8940 6575 l0 -185 185 0 185 0 0 185 0 185 -185 0 -185 0 0 -185z"/>
<path d="M570 1845 l0 -1275 1275 0 1275 0 0 1275 0 1275 -1275 0 -1275 0 0
-1275z m2180 -5 l0 -910 -910 0 -910 0 0 910 0 910 910 0 910 0 0 -910z"/>
<path d="M1300 1845 l0 -545 545 0 545 0 0 545 0 545 -545 0 -545 0 0 -545z"/>
</g>
</svg>
