<?xml version="1.0" standalone="no"?>
<!DOCTYPE svg PUBLIC "-//W3C//DTD SVG 20010904//EN"
 "http://www.w3.org/TR/2001/REC-SVG-20010904/DTD/svg10.dtd">
<svg version="1.0" xmlns="http://www.w3.org/2000/svg"
 width="1024.000000pt" height="1024.000000pt" viewBox="0 0 1024.000000 1024.000000"
 preserveAspectRatio="xMidYMid meet">

<g transform="translate(0.000000,1024.000000) scale(0.100000,-0.100000)"
fill="#000000" stroke="none">
<path d="M570 8155 l0 -1515 1515 0 1515 0 0 1515 0 1515 -1515 0 -1515 0 0
-1515z m2600 0 l0 -1085 -1085 0 -1085 0 0 1085 0 1085 1085 0 1085 0 0 -1085z"/>
<path d="M1440 8150 l0 -650 650 0 650 0 0 650 0 650 -650 0 -650 0 0 -650z"/>
<path d="M4470 9235 l0 -435 -215 0 -215 0 0 -430 0 -430 215 0 215 0 0 -435
0 -435 -215 0 -215 0 0 -215 0 -215 215 0 215 0 0 215 0 215 215 0 215 0 0
-215 0 -215 220 0 220 0 0 -435 0 -435 -220 0 -220 0 0 -435 0 -435 -650 0
-650 0 0 220 0 220 -215 0 -215 0 0 -220 0 -220 215 0 215 0 0 -215 0 -215
-215 0 -215 0 0 -215 0 -215 215 0 215 0 0 215 0 215 435 0 435 0 0 -215 0
-215 -215 0 -215 0 0 -435 0 -435 215 0 215 0 0 -215 0 -215 -215 0 -215 0 0
-435 0 -435 215 0 215 0 0 435 0 435 215 0 215 0 0 -220 0 -220 220 0 220 0 0
-215 0 -215 -220 0 -220 0 0 -215 0 -215 -215 0 -215 0 0 -220 0 -220 650 0
650 0 0 220 0 220 215 0 215 0 0 -220 0 -220 220 0 220 0 0 -215 0 -215 650 0
650 0 0 215 0 215 -220 0 -220 0 0 220 0 220 220 0 220 0 0 215 0 215 -435 0
-435 0 0 -215 0 -215 -215 0 -215 0 0 430 0 430 -220 0 -220 0 0 435 0 435
220 0 220 0 0 215 0 215 -220 0 -220 0 0 220 0 220 -215 0 -215 0 0 650 0 650
-215 0 -215 0 0 215 0 215 215 0 215 0 0 215 0 215 215 0 215 0 0 650 0 650
-215 0 -215 0 0 220 0 220 215 0 215 0 0 430 0 430 -430 0 -430 0 0 220 0 220
430 0 430 0 0 215 0 215 -865 0 -865 0 0 -435z m870 -650 l0 -215 -220 0 -220
0 0 -215 0 -215 220 0 220 0 0 -220 0 -220 215 0 215 0 0 -430 0 -430 -215 0
-215 0 0 215 0 215 -220 0 -220 0 0 435 0 435 -215 0 -215 0 0 430 0 430 435
0 435 0 0 -215z m0 -4115 l0 -430 215 0 215 0 0 -220 0 -220 215 0 215 0 0
-215 0 -215 -215 0 -215 0 0 215 0 215 -215 0 -215 0 0 220 0 220 -220 0 -220
0 0 -220 0 -220 -215 0 -215 0 0 220 0 220 215 0 215 0 0 430 0 430 220 0 220
0 0 -430z m0 -1515 l0 -215 215 0 215 0 0 -220 0 -220 215 0 215 0 0 -215 0
-215 -215 0 -215 0 0 215 0 215 -215 0 -215 0 0 220 0 220 -220 0 -220 0 0
215 0 215 220 0 220 0 0 -215z"/>
<path d="M6640 8155 l0 -1515 1515 0 1515 0 0 1515 0 1515 -1515 0 -1515 0 0
-1515z m2600 0 l0 -1085 -1085 0 -1085 0 0 1085 0 1085 1085 0 1085 0 0 -1085z"/>
<path d="M7500 8150 l0 -650 650 0 650 0 0 650 0 650 -650 0 -650 0 0 -650z"/>
<path d="M1870 5770 l0 -430 -215 0 -215 0 0 215 0 215 -220 0 -220 0 0 -215
0 -215 -215 0 -215 0 0 -220 0 -220 215 0 215 0 0 -430 0 -430 220 0 220 0 0
215 0 215 650 0 650 0 0 435 0 435 -220 0 -220 0 0 215 0 215 220 0 220 0 0
215 0 215 -435 0 -435 0 0 -430z"/>
<path d="M3170 5985 l0 -215 435 0 435 0 0 215 0 215 -435 0 -435 0 0 -215z"/>
<path d="M7940 5985 l0 -215 -220 0 -220 0 0 -215 0 -215 -215 0 -215 0 0
-220 0 -220 -435 0 -435 0 0 -215 0 -215 220 0 220 0 0 -215 0 -215 215 0 215
0 0 -870 0 -870 215 0 215 0 0 220 0 220 435 0 435 0 0 -870 0 -870 215 0 215
0 0 -215 0 -215 220 0 220 0 0 215 0 215 215 0 215 0 0 435 0 435 -435 0 -435
0 0 215 0 215 435 0 435 0 0 435 0 435 -215 0 -215 0 0 215 0 215 -435 0 -435
0 0 -215 0 -215 -435 0 -435 0 0 215 0 215 220 0 220 0 0 220 0 220 215 0 215
0 0 215 0 215 215 0 215 0 0 -215 0 -215 435 0 435 0 0 650 0 650 -215 0 -215
0 0 215 0 215 -220 0 -220 0 0 215 0 215 -430 0 -430 0 0 -215z m860 -430 l0
-215 220 0 220 0 0 -220 0 -220 -220 0 -220 0 0 220 0 220 -215 0 -215 0 0
-435 0 -435 -215 0 -215 0 0 215 0 215 -220 0 -220 0 0 220 0 220 435 0 435 0
0 215 0 215 215 0 215 0 0 -215z m440 -2600 l0 -215 -435 0 -435 0 0 215 0
215 435 0 435 0 0 -215z m0 -1735 l0 -220 -220 0 -220 0 0 220 0 220 220 0
220 0 0 -220z"/>
<path d="M570 2085 l0 -1515 1515 0 1515 0 0 1515 0 1515 -1515 0 -1515 0 0
-1515z m2600 0 l0 -1085 -1085 0 -1085 0 0 1085 0 1085 1085 0 1085 0 0 -1085z"/>
<path d="M1440 2090 l0 -650 650 0 650 0 0 650 0 650 -650 0 -650 0 0 -650z"/>
</g>
</svg>
