<?xml version="1.0" standalone="no"?>
<!DOCTYPE svg PUBLIC "-//W3C//DTD SVG 20010904//EN"
 "http://www.w3.org/TR/2001/REC-SVG-20010904/DTD/svg10.dtd">
<svg version="1.0" xmlns="http://www.w3.org/2000/svg"
 width="1080.000000pt" height="1080.000000pt" viewBox="0 0 1080.000000 1080.000000"
 preserveAspectRatio="xMidYMid meet">

<g transform="translate(0.000000,1080.000000) scale(0.100000,-0.100000)"
fill="#000000" stroke="none">
<path d="M0 5400 l0 -5400 5400 0 5400 0 0 5400 0 5400 -5400 0 -5400 0 0
-5400z m6855 1540 c0 -1681 -1 -1824 -18 -1930 -50 -328 -159 -588 -338 -804
-346 -419 -848 -568 -1485 -441 -478 96 -834 395 -983 828 -60 173 -96 414
-89 592 l3 80 466 3 466 2 7 -102 c18 -264 81 -436 203 -555 106 -104 274
-158 411 -132 215 40 361 303 392 709 6 85 10 774 10 1853 l0 1717 478 -2 477
-3 0 -1815z m-2478 378 c26 -24 28 -38 12 -83 -11 -29 -7 -39 51 -146 112
-203 263 -481 294 -541 20 -36 20 -36 -3 -110 -106 -339 -140 -491 -128 -577
l5 -38 -234 -7 c-129 -4 -238 -5 -242 -2 -4 2 -9 33 -10 68 -5 113 -74 356
-152 533 -12 28 -22 57 -23 66 0 8 79 175 177 370 177 353 177 354 162 384
-21 41 -20 52 9 80 30 31 52 31 82 3z m283 -1618 l0 -69 -294 -3 -294 -3 -6
44 c-10 70 -7 89 12 94 9 3 144 5 300 6 l282 1 0 -70z m-42 -202 l3 -88 -98 0
c-54 0 -169 -3 -255 -7 l-158 -6 0 91 0 91 68 4 c37 2 150 3 252 3 l185 -1 3
-87z m2442 -2123 l0 -35 -1660 0 -1660 0 0 35 0 35 1660 0 1660 0 0 -35z
m-2452 -467 c-3 -225 -4 -233 -23 -233 -13 0 -21 8 -23 23 l-3 23 -30 -26
c-59 -49 -157 -26 -194 45 -19 36 -19 130 -1 174 29 71 109 101 177 68 l39
-19 0 82 c0 45 3 85 7 88 3 4 17 7 30 7 l23 0 -2 -232z m687 -3 l0 -230 -25 0
-25 0 -3 233 -2 233 27 -3 28 -3 0 -230z m1201 148 c0 -46 3 -86 7 -89 4 -4
16 1 27 11 13 11 37 18 66 19 39 1 50 -3 74 -31 33 -36 43 -94 38 -213 -3 -72
-4 -75 -28 -75 -25 0 -25 0 -30 118 -5 111 -7 120 -30 139 -17 14 -33 18 -55
14 -52 -10 -65 -37 -66 -140 -1 -50 -2 -95 -4 -101 -1 -5 -3 -16 -3 -23 -1 -8
-11 -12 -24 -10 l-23 3 -3 233 -2 233 27 -3 c28 -3 28 -3 29 -85z m-2571 -300
c-3 -18 -19 -43 -37 -58 -26 -22 -38 -26 -87 -23 -49 3 -56 6 -59 26 -3 20 1
22 46 22 82 0 87 10 89 213 1 171 1 172 25 177 l23 6 3 -166 c2 -91 0 -179 -3
-197z m1180 139 c40 -116 70 -214 66 -216 -3 -2 -17 -3 -30 -2 -21 1 -28 11
-46 66 l-22 65 -80 3 -80 3 -18 -63 c-11 -35 -23 -66 -28 -69 -17 -12 -52 -4
-49 11 3 12 119 357 137 408 3 8 18 12 41 10 l36 -3 73 -213z m353 192 c4 -27
-21 -47 -48 -39 -20 6 -28 44 -13 59 15 15 58 1 61 -20z m483 -183 c38 -113
69 -211 69 -218 0 -10 -9 -13 -27 -11 -23 3 -29 12 -48 68 l-22 65 -80 3 -80
3 -19 -66 c-15 -51 -24 -67 -41 -71 -12 -3 -26 -3 -32 0 -7 5 81 284 134 424
3 8 18 12 41 10 l37 -3 68 -204z m-1751 81 c47 -23 59 -62 59 -199 1 -106 0
-113 -19 -113 -10 0 -23 7 -28 16 -8 15 -12 15 -40 0 -17 -9 -48 -16 -70 -16
-88 0 -123 103 -56 165 25 23 35 26 117 40 41 7 45 19 21 54 -16 22 -22 23
-80 18 -57 -6 -64 -4 -64 12 0 37 103 52 160 23z m2049 7 c17 -6 31 -15 31
-20 0 -5 5 -9 10 -9 6 0 10 7 10 16 0 11 8 14 26 12 l26 -3 -1 -170 c-2 -194
-11 -228 -71 -257 -40 -21 -127 -24 -165 -6 -26 12 -30 24 -16 47 8 12 12 12
25 2 25 -21 111 -18 136 4 20 18 46 92 36 102 -2 3 -15 -2 -28 -11 -33 -23
-113 -21 -148 4 -16 11 -36 40 -46 65 -31 83 -3 172 70 216 36 22 60 24 105 8z
m717 -4 c51 -21 64 -61 64 -199 0 -111 -1 -115 -22 -113 -11 1 -23 9 -26 19
-4 17 -6 16 -32 -2 -59 -42 -151 -15 -165 50 -13 60 49 130 118 130 65 1 86
30 47 65 -16 15 -30 17 -80 12 -54 -6 -60 -5 -60 12 0 35 96 51 156 26z
m-1506 -156 l0 -160 -27 3 -28 3 -3 158 -3 157 31 0 30 0 0 -161z m-543 -535
c3 -61 2 -59 15 -46 17 17 48 15 70 -5 24 -21 27 -143 3 -143 -10 0 -15 16
-17 63 -3 59 -4 62 -31 65 -32 4 -39 -8 -41 -75 0 -27 -6 -48 -13 -51 -10 -3
-13 24 -13 113 0 89 3 116 13 112 6 -2 13 -17 14 -33z m-527 11 c0 -13 -7 -15
-34 -10 -38 8 -90 -14 -100 -40 -25 -67 17 -139 77 -133 28 3 32 7 35 36 3 26
0 32 -17 32 -11 0 -23 5 -26 10 -4 6 10 10 35 10 l41 0 -3 -52 -3 -53 -61 -3
c-58 -3 -63 -1 -88 28 -20 24 -26 43 -26 76 0 55 12 79 48 98 38 21 122 21
122 1z m708 -2 c-5 -25 -28 -28 -28 -4 0 12 6 21 16 21 9 0 14 -7 12 -17z
m438 -17 c26 -30 33 -100 14 -137 -16 -29 -64 -49 -120 -49 l-50 0 0 111 0
111 66 -4 c58 -4 70 -8 90 -32z m382 17 c-4 -22 -22 -20 -26 1 -2 10 3 16 13
16 10 0 15 -7 13 -17z m-1433 -53 c9 14 35 13 35 -3 0 -7 -10 -17 -22 -22 -19
-8 -23 -19 -26 -67 -2 -43 -7 -58 -17 -58 -12 0 -15 16 -15 73 0 78 5 93 26
76 8 -7 14 -7 19 1z m150 -3 c14 -11 18 -28 19 -78 l1 -64 -54 0 c-64 0 -82
17 -63 59 8 19 22 27 52 32 22 4 40 10 40 14 0 17 -31 32 -55 26 -14 -4 -25
-2 -25 3 0 22 58 27 85 8z m115 3 c46 29 100 -7 100 -68 0 -65 -44 -101 -98
-81 -20 8 -22 5 -22 -32 0 -28 -4 -39 -12 -37 -9 3 -14 35 -16 103 -3 109 1
133 21 117 8 -7 18 -7 27 -2z m350 -76 c0 -59 -3 -74 -15 -74 -12 0 -15 15
-15 73 0 41 3 77 6 80 16 16 24 -10 24 -79z m158 67 c4 -10 -2 -12 -22 -7 -20
5 -32 1 -51 -18 -29 -29 -31 -43 -9 -74 11 -15 25 -22 50 -22 40 0 47 -19 7
-21 -66 -3 -94 19 -96 76 -1 30 5 43 27 62 31 26 86 29 94 4z m445 1 c9 -10
18 -29 19 -43 3 -23 0 -24 -54 -27 -32 -2 -58 -6 -58 -9 0 -19 37 -43 67 -43
18 0 33 -4 33 -10 0 -18 -86 -12 -102 8 -34 38 -29 100 9 130 24 18 67 15 86
-6z m145 -1 c3 -10 -2 -12 -21 -8 -16 5 -29 2 -36 -7 -13 -15 -9 -19 34 -41
24 -12 33 -64 13 -76 -18 -12 -88 -11 -88 1 0 6 16 10 35 10 45 0 48 28 5 52
-32 18 -40 54 -18 76 16 16 70 11 76 -7z m72 -67 c0 -59 -3 -74 -15 -74 -12 0
-15 15 -15 73 0 41 3 77 6 80 16 16 24 -10 24 -79z m180 -11 c0 -70 -4 -95
-16 -107 -30 -30 -103 -35 -112 -7 -4 11 3 12 31 7 26 -5 39 -2 51 9 28 29 20
44 -19 38 -49 -8 -75 17 -75 71 0 64 26 86 97 83 l43 -2 0 -92z m90 87 c23 15
51 12 72 -7 24 -21 27 -143 3 -143 -10 0 -15 16 -17 63 -3 59 -4 62 -31 65
-32 4 -38 -7 -40 -74 -1 -26 -7 -49 -14 -51 -8 -3 -12 20 -15 72 -3 82 -1 90
16 75 7 -5 17 -5 26 0z m249 -11 c13 -12 21 -30 19 -42 -3 -19 -10 -22 -55
-25 -34 -2 -53 -8 -53 -16 0 -22 23 -36 62 -36 21 0 38 -4 38 -10 0 -5 -22
-10 -49 -10 -40 0 -53 4 -65 22 -24 34 -20 85 9 113 30 31 64 32 94 4z m77 10
c4 -8 9 -8 17 0 16 16 37 13 37 -4 0 -8 -7 -15 -15 -15 -21 0 -35 -33 -35 -84
0 -34 -4 -46 -15 -46 -12 0 -15 16 -15 80 0 74 9 97 26 69z"/>
<path d="M4322 6955 l5 -257 -42 -20 c-88 -43 -119 -141 -70 -223 58 -100 205
-101 265 -3 56 92 22 189 -82 233 l-38 15 -2 252 c-3 239 -4 253 -22 256 -18
4 -19 -5 -14 -253z"/>
<path d="M4406 2919 c-22 -25 -26 -41 -26 -89 0 -76 28 -114 85 -114 59 0 85
37 85 120 0 56 -4 68 -25 89 -36 37 -86 34 -119 -6z"/>
<path d="M4967 2974 c-14 -43 -28 -87 -32 -96 -6 -16 0 -18 54 -18 44 0 61 4
61 13 0 8 -13 51 -29 97 l-29 83 -25 -79z"/>
<path d="M5827 3040 c-3 -8 -15 -46 -27 -85 -13 -38 -25 -76 -27 -82 -4 -10
11 -13 56 -13 34 0 61 3 61 8 0 24 -59 184 -63 172z"/>
<path d="M4126 2829 c-61 -14 -86 -67 -50 -103 42 -43 114 4 114 74 0 43 -1
44 -64 29z"/>
<path d="M6148 2933 c-54 -62 -51 -149 6 -195 91 -74 187 101 104 189 -27 29
-87 32 -110 6z"/>
<path d="M6913 2829 c-49 -6 -83 -33 -83 -65 0 -53 60 -71 105 -31 22 18 26
29 23 62 l-3 40 -42 -6z"/>
<path d="M5400 2211 l0 -91 34 0 c49 0 86 38 86 88 0 54 -25 82 -78 89 l-42 6
0 -92z"/>
<path d="M4572 2169 c-29 -11 -26 -43 4 -47 25 -4 49 22 40 43 -6 17 -12 18
-44 4z"/>
<path d="M4740 2220 c-35 -35 -19 -100 23 -100 31 0 47 18 47 55 0 54 -37 78
-70 45z"/>
<path d="M5622 2228 c-23 -23 -13 -38 23 -38 28 0 35 4 35 19 0 28 -37 40 -58
19z"/>
<path d="M5996 2227 c-13 -9 -17 -23 -14 -51 6 -75 70 -75 76 0 3 28 -1 42
-14 51 -10 7 -21 13 -24 13 -3 0 -14 -6 -24 -13z"/>
<path d="M6350 2225 c-17 -20 -4 -35 30 -35 16 0 32 5 35 10 9 15 -13 40 -35
40 -10 0 -23 -7 -30 -15z"/>
</g>
</svg>
